<svg id="图层_1" data-name="图层 1" xmlns="http://www.w3.org/2000/svg" xmlns:xlink="http://www.w3.org/1999/xlink" viewBox="0 0 541.3 543.14"><defs><style>.cls-1{fill:url(#未命名的渐变_27);}.cls-2{fill:url(#未命名的渐变_27-2);}.cls-3{fill:url(#未命名的渐变_27-3);}.cls-4{fill:url(#未命名的渐变_27-4);}.cls-5{fill:url(#未命名的渐变_27-5);}</style><linearGradient id="未命名的渐变_27" x1="1281.14" y1="745.4" x2="1304.57" y2="745.4" gradientUnits="userSpaceOnUse"><stop offset="0.01" stop-color="#009563"/><stop offset="1" stop-color="#0099e2"/></linearGradient><linearGradient id="未命名的渐变_27-2" x1="1333.66" y1="660.28" x2="1471.64" y2="660.28" xlink:href="#未命名的渐变_27"/><linearGradient id="未命名的渐变_27-3" x1="1203.78" y1="751.57" x2="1272.91" y2="751.57" xlink:href="#未命名的渐变_27"/><linearGradient id="未命名的渐变_27-4" x1="930.33" y1="586.3" x2="1448.96" y2="586.3" xlink:href="#未命名的渐变_27"/><linearGradient id="未命名的渐变_27-5" x1="1200.99" y1="784" x2="1200.99" y2="414" xlink:href="#未命名的渐变_27"/></defs><title>哈林成品发-20210705-end</title><path class="cls-1" d="M1281.14,845.81l.15,0q11.88-3.74,23.28-8.52V645h-23.28Z" transform="translate(-930.33 -315.02)"/><path class="cls-2" d="M1456.68,497.6l-22.29,13.78a246.1,246.1,0,0,1-9.31,174.69V645h-91.42V823a271.84,271.84,0,0,0,23-14.62V661.23h45l.13,106.94a271.33,271.33,0,0,0,54.88-270.57Z" transform="translate(-930.33 -315.02)"/><path class="cls-3" d="M1227.06,645h-23.28V858.16q11.76-.17,23.28-1.3a270,270,0,0,0,45.85-8.63V821.62a244.13,244.13,0,0,1-45.85,9.58Z" transform="translate(-930.33 -315.02)"/><path class="cls-4" d="M1327.84,546.09h-62.57a1.32,1.32,0,0,1-1.36-1.63,1.35,1.35,0,0,1,1.3-1h71.48a1.45,1.45,0,0,0,.51-.1l22.46-9.17a1.34,1.34,0,0,0-.5-2.57h-82.64a1.33,1.33,0,0,1-1-2.14l.63-.8v.22h93.73a1.4,1.4,0,0,0,.57-.13l27.39-13.17a1.33,1.33,0,0,0-.58-2.53H1291a1.33,1.33,0,0,1-1-2.15l.12-.15a1.35,1.35,0,0,1,1-.51H1408a1.34,1.34,0,0,0,.68-.19l36.79-21.81a1.33,1.33,0,0,0-.68-2.48H1291.05a1.32,1.32,0,0,0-1,.42l-42.13,45,0,.06-18.38,0a1.33,1.33,0,0,1-1.33-1.33V479.3a1.34,1.34,0,0,1,1.34-1.33h218.65a1.33,1.33,0,0,0,.6-1.71c-42.07-95-137.14-161.24-247.71-161.24a269.92,269.92,0,0,0-189.18,77,1.33,1.33,0,0,0,.94,2.27h27.85a1.31,1.31,0,0,0,1-.43c25.15-27.63,74.41-50.9,132.17-51.26a1.33,1.33,0,0,1,1.34,1.34l-.32,63.21v12.69a1.34,1.34,0,0,1-1.33,1.33H1029.64c-1,0,4.5-8.24,5-9.13l2-3.41a.54.54,0,0,0,0-.11,1.32,1.32,0,0,0-1.19-1.93h-32.65l-1.94,0h-.1l-.48,0h-.25a1.31,1.31,0,0,0-1,.46c-7.1,8.54-21.46,25-27.39,34.3a1.32,1.32,0,0,0,1.12,2h240A15.39,15.39,0,0,0,1228.26,428V345.5a1.34,1.34,0,0,1,1.34-1.34c72.33.95,157.48,77.88,169.2,110.28l.06.15a2.34,2.34,0,0,1-2.18,3.17H962.88a1.35,1.35,0,0,0-1.18.7q-4.94,9.17-9.12,18.75a1.34,1.34,0,0,0,1.22,1.87h220.12a1.33,1.33,0,0,1,1.33,1.32v12.19a1.34,1.34,0,0,1-1.33,1.33h-227a1.35,1.35,0,0,0-1.26.89q-3.43,9.74-6.13,19.82a1.34,1.34,0,0,0,1.29,1.67h233.13a1.34,1.34,0,0,1,1.33,1.33v12.19a1.34,1.34,0,0,1-1.33,1.33H936.76a1.33,1.33,0,0,0-1.31,1.07q-2.1,10.8-3.34,21.95a1.34,1.34,0,0,0,1.32,1.48h240.49a1.33,1.33,0,0,1,1.33,1.33v12.18a1.33,1.33,0,0,1-1.33,1.33H932a1.33,1.33,0,0,0-1.33,1.27c-.23,4.65-.36,9.34-.36,14.07,0,2.34,0,4.66.11,7a1.34,1.34,0,0,0,1.33,1.3h242.15a1.33,1.33,0,0,1,1.33,1.33v12a1.33,1.33,0,0,1-1.33,1.33L952.18,609h-19.4a1.34,1.34,0,0,0-1.33,1.36c.1,6.86-.17,13,1,19.73h0c7.26,41,23.74,82.8,47.22,115.29a275.75,275.75,0,0,0,23.28,28.07V718.1h42v91.42a271.55,271.55,0,0,0,23.28,14.54c5.74,3.2,11.62,6.16,17.6,9q11.37,5.28,23.28,9.53V736.42h49.12V855q11.49,1.78,23.28,2.6V645h-95.68V804.55c-6-3.16-11.89-6.53-17.6-10.16V645h-23.28v56.07h-42V645H979.64v51.29c-9.71-19.42-16.91-44.18-21.22-66.11l4.18,0h265.61l0-.05V557a1.34,1.34,0,0,1,1.33-1.33l26,0v-.05h56.85a1.29,1.29,0,0,0,.54-.12l15.42-6.89A1.33,1.33,0,0,0,1327.84,546.09ZM1109.1,661.89h49.12v57.49H1109.1Z" transform="translate(-930.33 -315.02)"/><path class="cls-5" d="M1281.14,845.81l.15,0q11.88-3.74,23.28-8.52V645h-23.28Z" transform="translate(-930.33 -315.02)"/><path class="cls-5" d="M1456.68,497.6l-22.29,13.78a246.1,246.1,0,0,1-9.31,174.69V645h-91.42V823a271.84,271.84,0,0,0,23-14.62V661.23h45l.13,106.94a271.33,271.33,0,0,0,54.88-270.57Z" transform="translate(-930.33 -315.02)"/><path class="cls-5" d="M1227.06,645h-23.28V858.16q11.76-.17,23.28-1.3a270,270,0,0,0,45.85-8.63V821.62a244.13,244.13,0,0,1-45.85,9.58Z" transform="translate(-930.33 -315.02)"/><path class="cls-5" d="M1327.84,546.09h-62.57a1.32,1.32,0,0,1-1.36-1.63,1.35,1.35,0,0,1,1.3-1h71.48a1.45,1.45,0,0,0,.51-.1l22.46-9.17a1.34,1.34,0,0,0-.5-2.57h-82.64a1.33,1.33,0,0,1-1-2.14l.63-.8v.22h93.73a1.4,1.4,0,0,0,.57-.13l27.39-13.17a1.33,1.33,0,0,0-.58-2.53H1291a1.33,1.33,0,0,1-1-2.15l.12-.15a1.35,1.35,0,0,1,1-.51H1408a1.34,1.34,0,0,0,.68-.19l36.79-21.81a1.33,1.33,0,0,0-.68-2.48H1291.05a1.32,1.32,0,0,0-1,.42l-42.13,45,0,.06-18.38,0a1.33,1.33,0,0,1-1.33-1.33V479.3a1.34,1.34,0,0,1,1.34-1.33h218.65a1.33,1.33,0,0,0,.6-1.71c-42.07-95-137.14-161.24-247.71-161.24a269.92,269.92,0,0,0-189.18,77,1.33,1.33,0,0,0,.94,2.27h27.85a1.31,1.31,0,0,0,1-.43c25.15-27.63,74.41-50.9,132.17-51.26a1.33,1.33,0,0,1,1.34,1.34l-.32,63.21v12.69a1.34,1.34,0,0,1-1.33,1.33H1029.64c-1,0,4.5-8.24,5-9.13l2-3.41a.54.54,0,0,0,0-.11,1.32,1.32,0,0,0-1.19-1.93h-32.65l-1.94,0h-.1l-.48,0h-.25a1.31,1.31,0,0,0-1,.46c-7.1,8.54-21.46,25-27.39,34.3a1.32,1.32,0,0,0,1.12,2h240A15.39,15.39,0,0,0,1228.26,428V345.5a1.34,1.34,0,0,1,1.34-1.34c72.33.95,157.48,77.88,169.2,110.28l.06.15a2.34,2.34,0,0,1-2.18,3.17H962.88a1.35,1.35,0,0,0-1.18.7q-4.94,9.17-9.12,18.75a1.34,1.34,0,0,0,1.22,1.87h220.12a1.33,1.33,0,0,1,1.33,1.32v12.19a1.34,1.34,0,0,1-1.33,1.33h-227a1.35,1.35,0,0,0-1.26.89q-3.43,9.74-6.13,19.82a1.34,1.34,0,0,0,1.29,1.67h233.13a1.34,1.34,0,0,1,1.33,1.33v12.19a1.34,1.34,0,0,1-1.33,1.33H936.76a1.33,1.33,0,0,0-1.31,1.07q-2.1,10.8-3.34,21.95a1.34,1.34,0,0,0,1.32,1.48h240.49a1.33,1.33,0,0,1,1.33,1.33v12.18a1.33,1.33,0,0,1-1.33,1.33H932a1.33,1.33,0,0,0-1.33,1.27c-.23,4.65-.36,9.34-.36,14.07,0,2.34,0,4.66.11,7a1.34,1.34,0,0,0,1.33,1.3h242.15a1.33,1.33,0,0,1,1.33,1.33v12a1.33,1.33,0,0,1-1.33,1.33L952.18,609h-19.4a1.34,1.34,0,0,0-1.33,1.36c.1,6.86-.17,13,1,19.73h0c7.26,41,23.74,82.8,47.22,115.29a275.75,275.75,0,0,0,23.28,28.07V718.1h42v91.42a271.55,271.55,0,0,0,23.28,14.54c5.74,3.2,11.62,6.16,17.6,9q11.37,5.28,23.28,9.53V736.42h49.12V855q11.49,1.78,23.28,2.6V645h-95.68V804.55c-6-3.16-11.89-6.53-17.6-10.16V645h-23.28v56.07h-42V645H979.64v51.29c-9.71-19.42-16.91-44.18-21.22-66.11l4.18,0h265.61l0-.05V557a1.34,1.34,0,0,1,1.33-1.33l26,0v-.05h56.85a1.29,1.29,0,0,0,.54-.12l15.42-6.89A1.33,1.33,0,0,0,1327.84,546.09ZM1109.1,661.89h49.12v57.49H1109.1Z" transform="translate(-930.33 -315.02)"/></svg>